<svg width="176" height="81" fill="none" xmlns="http://www.w3.org/2000/svg"><g clip-path="url(#a)" fill="#000"><path d="M119.95 19.15c0 12.61-7.4 14.15-15.01 14.15h-4.75V5.06h4.75c7.61 0 15.01 1.53 15.01 14.09zM94.98.66v37.03h10.11c11.7 0 20.17-4.44 20.17-18.54 0-14.04-8.48-18.49-20.17-18.49H94.98zM1.23 10.11c0 6.13 5.06 8.99 10.16 10.11l4.6.97c4.6 1.07 7.97 2.6 7.97 6.54 0 3.68-3.12 6.23-8.63 6.23-5.72 0-9.24-2.66-10.21-7.76H0c.97 7.35 6.49 12.16 15.22 12.16 7.35 0 14.1-3.88 14.1-11.08 0-7.46-6.79-9.6-12.46-10.83l-4.29-.97c-3.47-.77-6.03-2.4-6.03-5.67 0-4.14 5.01-5.41 7.87-5.41 3.68 0 7.97 1.48 9.19 5.72h5.06C27.17 3.01 21.3 0 14.61 0 8.63 0 1.23 3.01 1.23 10.11zm39.91 27.58h5.21V5.16H58.4V.66H29.08v4.49h12.05v32.54h.01zM61.38.66v21.96c0 11.54 4.49 15.73 14.76 15.73 10.78 0 14.91-5.31 14.91-16.14V.66h-5.21v21.96c0 7.3-2.6 11.24-9.7 11.24-6.95 0-9.55-3.37-9.55-10.67V.66h-5.21zm71.73 0h-5.21v37.03h5.21V.66zM30.12 52.53c0 6.13 5.06 8.99 10.16 10.11l4.6.97c4.6 1.07 7.97 2.6 7.97 6.54 0 3.68-3.12 6.23-8.63 6.23-5.72 0-9.24-2.66-10.21-7.76H28.9c.97 7.35 6.49 12.16 15.22 12.16 7.35 0 14.1-3.88 14.1-11.08 0-7.46-6.79-9.6-12.46-10.83l-4.29-.97c-3.47-.77-6.03-2.4-6.03-5.67 0-4.14 5.01-5.41 7.87-5.41 3.68 0 7.97 1.48 9.19 5.72h5.06c-1.48-7.1-7.35-10.11-14.04-10.11-5.99-.02-13.4 3-13.4 10.1zM86.87 43.08v15.73H67.41V43.08H62.2V80.1h5.21V63.3h19.46v16.8h5.21V43.08h-5.21zM172.5 10.41c.65-.65.65-1.69 0-2.34a1.648 1.648 0 1 0-2.33 2.33c.64.65 1.68.65 2.33.01zM164.97 10.52c-.65-.65-1.7-.64-2.34 0-.65.65-.65 1.69 0 2.34.65.65 1.69.65 2.34 0 .64-.64.64-1.69 0-2.34zM169.98 15.53c-.64-.64-1.7-.64-2.34 0-.65.65-.64 1.7 0 2.34.65.65 1.69.65 2.34 0 .64-.64.65-1.69 0-2.34zM159.95 7.84c.64-.64.64-1.7 0-2.34-.65-.65-1.7-.64-2.34 0-.65.65-.65 1.69 0 2.34.64.64 1.69.65 2.34 0zM175 20.56c-.65-.65-1.7-.64-2.34 0-.65.65-.65 1.69 0 2.34.64.64 1.69.65 2.34 0 .64-.65.65-1.7 0-2.34zM154.93 2.83c.64-.64.64-1.7 0-2.34-.64-.64-1.7-.64-2.34 0-.65.65-.64 1.7 0 2.34.65.64 1.7.64 2.34 0zM165.05 22.93c-.65.65-.64 1.7 0 2.34.65.65 1.69.65 2.34 0 .65-.65.65-1.69 0-2.34-.65-.64-1.69-.65-2.34 0zM155.16 15.38c.64.64 1.69.65 2.34 0 .65-.65.64-1.7 0-2.34-.65-.65-1.7-.65-2.35-.01-.64.66-.63 1.71.01 2.35zM160.1 17.98c-.65.65-.64 1.7 0 2.34.64.64 1.69.64 2.33-.01.65-.65.65-1.69 0-2.33-.63-.64-1.68-.64-2.33 0zM152.56 10.44c.65-.65.64-1.7 0-2.34-.65-.65-1.69-.65-2.34 0-.65.65-.65 1.69 0 2.34.64.64 1.69.65 2.34 0zM147.57 15.43c.64-.64.63-1.69-.01-2.33a1.648 1.648 0 1 0-2.33 2.33c.64.64 1.69.64 2.34 0zM152.51 18.04c-.65-.65-1.7-.65-2.34-.01-.65.65-.64 1.7.01 2.34.64.64 1.69.65 2.34 0 .64-.64.63-1.69-.01-2.33zM160.06 27.92c-.65.65-.64 1.7 0 2.34a1.648 1.648 0 1 0 2.33-2.33c-.64-.65-1.69-.65-2.33-.01zM157.45 22.98c-.65-.65-1.7-.65-2.34-.01-.65.65-.64 1.7.01 2.34.64.64 1.69.64 2.33-.01.64-.63.64-1.67 0-2.32zM157.69 35.53c-.65.65-.65 1.69 0 2.34.64.64 1.69.65 2.34 0 .65-.65.64-1.7 0-2.34-.65-.64-1.7-.64-2.34 0zM152.67 30.51c-.65.65-.64 1.7 0 2.34.65.65 1.69.65 2.34 0 .65-.65.65-1.69 0-2.34-.65-.64-1.7-.64-2.34 0zM139.95 15.46c-.64-.64-1.69-.65-2.34 0-.65.65-.64 1.7 0 2.34.65.65 1.7.65 2.35.01.64-.65.64-1.7-.01-2.35zM144.97 20.48c-.65-.65-1.69-.65-2.34 0-.65.65-.65 1.69 0 2.34.64.64 1.69.65 2.34 0 .65-.65.64-1.7 0-2.34zM147.65 25.5c-.65.65-.65 1.69 0 2.34.65.65 1.69.65 2.34 0 .65-.65.65-1.69 0-2.34-.65-.65-1.69-.65-2.34 0zM145.2 33.03c-.64.64-.65 1.69 0 2.34.65.65 1.7.64 2.34 0 .65-.65.65-1.69 0-2.34-.65-.65-1.7-.65-2.34 0zM140.12 27.96c-.64.64-.65 1.69 0 2.34.65.65 1.7.64 2.34 0 .65-.65.65-1.69 0-2.34-.65-.65-1.69-.65-2.34 0zM167.42 5.33c.65-.65.65-1.69 0-2.34-.65-.65-1.69-.65-2.34 0-.64.64-.65 1.69 0 2.34.65.65 1.7.65 2.34 0zM147.62 5.5c.65-.65.65-1.69 0-2.34-.65-.65-1.69-.65-2.34 0-.64.64-.65 1.69 0 2.34.64.64 1.69.64 2.34 0zM170.01 27.89c-.64.64-.65 1.69 0 2.34.65.65 1.7.64 2.34 0 .65-.65.65-1.69 0-2.34-.65-.65-1.69-.65-2.34 0zM142.62 10.49c.65-.65.65-1.69 0-2.34-.65-.65-1.69-.65-2.34 0-.64.64-.65 1.69 0 2.34.65.65 1.7.64 2.34 0zM165.02 32.88c-.64.64-.65 1.69 0 2.34.65.65 1.7.64 2.34 0 .65-.65.65-1.69 0-2.34-.65-.65-1.7-.65-2.34 0zM111.6 80.5l22.12-22.12c-.13-.77-.3-1.54-.53-2.29l-23.88 23.88c.75.22 1.51.4 2.29.53zm-4.42-1.31 25.23-25.23c-.28-.64-.59-1.27-.94-1.88L105.3 78.25c.62.35 1.24.66 1.88.94zm-3.64-2.08 26.79-26.79c-.39-.54-.81-1.06-1.26-1.56l-27.08 27.09c.5.45 1.02.87 1.55 1.26zm-3-2.71 27.08-27.08c-.5-.45-1.02-.87-1.56-1.26L99.28 72.84c.39.53.8 1.05 1.26 1.56zm-2.4-3.33 26.15-26.15c-.61-.35-1.24-.66-1.88-.94l-25.2 25.2c.27.65.58 1.28.93 1.89zm-1.71-4.01 23.85-23.85a18.2 18.2 0 0 0-2.3-.52L95.91 64.77c.13.77.3 1.54.52 2.29zm-.78-4.94 19.69-19.69c-.99-.03-1.98.02-2.97.15L95.8 59.16c-.13.98-.18 1.97-.15 2.96zm1.02-6.74 11.93-11.93c-2.68.92-5.21 2.44-7.35 4.58a19.242 19.242 0 0 0-4.58 7.35zm37.31 5.63-19.75 19.75c.99.03 1.98-.02 2.96-.14l16.65-16.65c.12-.98.17-1.97.14-2.96zm-.99 6.71-12.05 12.05c2.71-.91 5.25-2.44 7.41-4.59l.05-.05c2.15-2.16 3.68-4.7 4.59-7.41zM174.78 43.08h-37.03v36.97h.01v.06h37.02V43.08zm-.45 30.49h-5.65v-5.65h5.65v5.65zm-36.14-23.95h5.65v5.65h-5.65v-5.65zm23.94 17.85h-5.65v-5.65h5.65v5.65zm.45-5.65h5.65v5.65h-5.65v-5.65zm-6.54 5.65h-5.65v-5.65h5.65v5.65zm-6.1-5.65v5.65h-5.65v-5.65h5.65zm-5.65-.45v-5.65h5.65v5.65h-5.65zm6.09 0v-5.65h5.65v5.65h-5.65zm0-6.09v-5.65h5.65v5.65h-5.65zm-.44 0h-5.65v-5.65h5.65v5.65zm-11.75.44h5.65v5.65h-5.65v-5.65zm0 6.1h5.65v5.65h-5.65v-5.65zm0 6.1h5.65v5.65h-5.65v-5.65zm6.1 0h5.65v5.65h-5.65v-5.65zm6.09 0h5.65v5.65h-5.65v-5.65zm6.1 0h5.65v5.65h-5.65v-5.65zm6.1 0h5.65v5.65h-5.65v-5.65zm11.75-.45h-5.65v-5.65h5.65v5.65zm0-6.1h-5.65v-5.65h5.65v5.65zm-6.1 0h-5.65v-5.65h5.65v5.65zm-6.1 0h-5.65v-5.65h5.65v5.65zm-5.65-6.09v-5.65h5.65v5.65h-5.65zm0-6.1v-5.65h5.65v5.65h-5.65zm-.44 0h-5.65v-5.65h5.65v5.65zm-6.1 0h-5.65v-5.65h5.65v5.65zm-6.1 0h-5.65v-5.65h5.65v5.65zm-5.65 24.83h5.65v5.65h-5.65v-5.65zm6.1 0h5.65v5.65h-5.65v-5.65zm6.09 0h5.65v5.65h-5.65v-5.65zm6.1 0h5.65v5.65h-5.65v-5.65zm6.1 0h5.65v5.65h-5.65v-5.65zm6.09 0h5.65v5.65h-5.65v-5.65zm5.66-18.73h-5.65v-5.65h5.65v5.65zm-6.1 0h-5.65v-5.65h5.65v5.65zm-5.65-6.1v-5.65h5.65v5.65h-5.65zm11.75 0h-5.65v-5.65h5.65v5.65z"/></g><defs><clipPath id="a"><path fill="#fff" d="M0 0h175.48v80.77H0z"/></clipPath></defs></svg>